<svg version="1.1" xmlns="http://www.w3.org/2000/svg" xmlns:xlink="http://www.w3.org/1999/xlink" width="50.52764" height="57.71092" viewBox="0,0,50.52764,57.71092"><g transform="translate(-216.84556,-147.40557)"><g data-paper-data="{&quot;isPaintingLayer&quot;:true}" fill-rule="nonzero" stroke="none" stroke-linecap="butt" stroke-linejoin="miter" stroke-miterlimit="10" stroke-dasharray="" stroke-dashoffset="0" style="mix-blend-mode: normal"><text transform="translate(261.76437,190.06312) rotate(-180) scale(0.87221,-0.87221)" font-size="40" xml:space="preserve" data-paper-data="{&quot;index&quot;:null}" fill="#9966ff" fill-rule="nonzero" stroke="none" stroke-width="1" stroke-linecap="butt" stroke-linejoin="miter" stroke-miterlimit="10" stroke-dasharray="" stroke-dashoffset="0" font-family="Sans Serif" font-weight="normal" text-anchor="start" style="mix-blend-mode: normal"><tspan x="0" dy="0">🎈</tspan></text><text transform="translate(224.25132,180.58063) scale(0.76265,0.76265)" font-size="40" xml:space="preserve" fill="#9966ff" fill-rule="nonzero" stroke="none" stroke-width="1" stroke-linecap="butt" stroke-linejoin="miter" stroke-miterlimit="10" stroke-dasharray="" stroke-dashoffset="0" font-family="Sans Serif" font-weight="normal" text-anchor="start" style="mix-blend-mode: normal"><tspan x="0" dy="0">🪖</tspan></text><path d="M245.05035,182.67138c-0.45419,-0.68129 -0.16459,-1.21383 0.08925,-1.50015c-0.80264,-0.921 -0.43241,-2.01734 0.34222,-3.08038l-0.61146,-0.40609c0.09874,-0.1473 0.19265,-0.30719 0.28566,-0.46977c-0.30111,-0.22824 -0.49561,-0.58979 -0.49561,-0.99677c0,-0.39373 0.18204,-0.74495 0.46655,-0.97406l0.98187,-0.80335l0.08111,0.09912c0.05617,-0.08604 0.11235,-0.17206 0.16852,-0.2581l0.303,0.01146l-0.02299,-0.10729l1.23396,-0.26442c0.09243,-0.02179 0.18882,-0.03332 0.2879,-0.03332c0.38162,0 0.7233,0.17101 0.95257,0.44058c0.29787,-0.23306 0.88154,-0.52406 1.54891,0.02197c0.96744,0.79155 0.17589,1.75899 0.17589,1.75899c-0.10079,0.12311 -0.38684,0.47178 -0.76162,0.90273c0.08699,0.62166 -0.08052,1.23561 -0.39113,1.81067c0.0551,0.14097 0.08535,0.29442 0.08535,0.45491c0,0.32535 -0.12429,0.62166 -0.32799,0.84405l-0.89705,0.98675l-0.04706,-0.04278c-0.15705,0.35317 -0.33222,0.69715 -0.53327,1.02702l-1.18116,0.92492c0,0 -1.04006,0.69338 -1.73344,-0.34668z" fill="#f44336" stroke-width="0.5"/><path d="M245.25536,173.86342c0.59541,-0.37645 1.25647,-0.65127 1.95817,-0.78569l-0.03529,-0.10586l0.57584,-0.19195c0.05284,-0.019 0.1098,-0.02935 0.16919,-0.02935c0.05739,0 0.11253,0.00967 0.16387,0.02747c0.06664,-0.11542 0.191,-0.22311 0.42304,-0.22311c0.5,0 0.5,0.5 0.5,0.5l-0.14645,0.54919c-0.70469,0.70469 -2.33068,1.36262 -3.69761,1.76194l0.04622,0.09244l-0.77355,0.38677c-0.06948,0.03658 -0.14862,0.05728 -0.2326,0.05728c-0.27614,0 -0.5,-0.22386 -0.5,-0.5c0,-0.10899 0.03487,-0.20984 0.09407,-0.29199c-0.26313,-0.33297 0.05238,-0.64847 0.05238,-0.64847c0.40478,-0.36542 0.89115,-0.4998 1.40273,-0.59868z" fill="#5e4f26" stroke-width="0.5"/><text transform="translate(233.76126,182.61559) rotate(44.47819) scale(0.5,0.5)" font-size="40" xml:space="preserve" fill="#5e4f26" fill-rule="nonzero" stroke="none" stroke-width="1" stroke-linecap="butt" stroke-linejoin="miter" stroke-miterlimit="10" stroke-dasharray="" stroke-dashoffset="0" font-family="Sans Serif" font-weight="normal" text-anchor="start" style="mix-blend-mode: normal"><tspan x="0" dy="0">🛡</tspan></text></g></g></svg>